<?xml version="1.0" standalone="no"?>
<!DOCTYPE svg PUBLIC "-//W3C//DTD SVG 20010904//EN"
 "http://www.w3.org/TR/2001/REC-SVG-20010904/DTD/svg10.dtd">
<svg version="1.0" xmlns="http://www.w3.org/2000/svg"
 width="512.000000pt" height="512.000000pt" viewBox="0 0 512.000000 512.000000"
 preserveAspectRatio="xMidYMid meet">
<metadata>
Created by potrace 1.14, written by Peter Selinger 2001-2017
</metadata>
<g transform="translate(0.000000,512.000000) scale(0.100000,-0.100000)"
fill="#000000" stroke="none">
<path d="M4550 5050 c-272 -185 -405 -337 -447 -511 -60 -250 178 -277 396
-46 119 127 174 277 173 472 0 61 -4 120 -9 133 -8 22 -11 20 -113 -48z"/>
<path d="M3692 4837 c-62 -64 -83 -87 -176 -202 -221 -272 -309 -476 -302
-700 6 -204 92 -316 237 -311 191 7 413 273 465 556 21 116 4 294 -42 435 -25
78 -109 261 -124 270 -4 3 -30 -19 -58 -48z"/>
<path d="M4430 4289 c-132 -14 -298 -91 -399 -185 -66 -60 -121 -156 -121
-208 0 -201 266 -296 575 -205 111 33 364 169 454 244 16 14 33 25 39 25 6 0
12 3 14 8 2 4 31 28 66 53 l63 47 -38 29 c-181 141 -434 216 -653 192z"/>
<path d="M2779 4042 c-2 -6 -31 -39 -64 -74 -229 -245 -383 -472 -444 -654
-74 -222 -53 -454 49 -554 48 -47 88 -63 157 -63 216 2 467 310 510 628 27
194 -21 423 -133 640 -38 73 -66 102 -75 77z"/>
<path d="M3625 3528 c-334 -59 -598 -301 -545 -498 16 -61 88 -130 165 -159
105 -40 224 -44 386 -16 149 26 410 167 664 358 104 78 100 74 84 89 -49 49
-220 142 -326 179 -141 48 -313 67 -428 47z"/>
<path d="M1689 3156 c-428 -457 -610 -794 -611 -1131 -2 -348 202 -517 462
-385 211 107 409 416 449 701 20 145 1 346 -50 509 -37 121 -138 334 -172 366
-9 8 -29 -8 -78 -60z"/>
<path d="M2738 2625 c-2 -2 -23 -6 -46 -10 -114 -17 -299 -100 -406 -183 -241
-187 -275 -408 -81 -540 80 -54 171 -77 310 -77 150 0 203 8 335 51 163 54
455 220 635 361 6 4 28 21 50 38 22 16 46 35 53 42 7 7 21 17 30 22 22 13 13
22 -83 86 -141 94 -322 168 -490 200 -68 13 -296 20 -307 10z"/>
<path d="M654 2187 c-96 -100 -251 -285 -327 -388 -63 -87 -164 -240 -177
-272 -6 -12 -14 -29 -19 -37 -33 -56 -79 -183 -107 -295 -23 -94 -27 -298 -8
-384 75 -324 356 -385 631 -137 128 116 260 343 309 531 65 255 30 562 -97
846 -44 99 -110 218 -120 219 -3 0 -42 -37 -85 -83z"/>
<path d="M1777 1583 c-157 -27 -352 -112 -476 -207 -259 -199 -296 -457 -85
-592 51 -33 108 -56 169 -68 17 -4 41 -9 55 -12 46 -9 244 -5 300 6 30 6 66
14 80 16 100 20 278 96 435 187 138 79 524 350 525 367 0 7 -104 79 -180 124
-122 72 -331 154 -435 171 -16 3 -43 8 -59 11 -58 12 -252 10 -329 -3z"/>
<path d="M1005 625 c-149 -37 -283 -112 -366 -203 -65 -71 -91 -128 -90 -198
1 -137 142 -223 356 -219 208 4 391 80 673 279 135 96 181 136 164 143 -7 2
-18 10 -25 17 -50 48 -224 133 -338 166 -91 27 -296 35 -374 15z"/>
</g>
</svg>
